<?xml version="1.0" encoding="utf-8"?><svg xmlns="http://www.w3.org/2000/svg" xmlns:xlink="http://www.w3.org/1999/xlink"><symbol viewBox="0 0 20 20" id="check" xmlns="http://www.w3.org/2000/svg"><title>check</title><path d="M8.294 16.998c-.435 0-.847-.203-1.111-.553L3.61 11.724a1.392 1.392 0 0 1 .27-1.951 1.392 1.392 0 0 1 1.953.27l2.351 3.104 5.911-9.492c.407-.652 1.267-.852 1.921-.445s.854 1.266.446 1.92L9.478 16.34a1.39 1.39 0 0 1-1.12.656c-.022.002-.042.002-.064.002z"/></symbol><symbol viewBox="0 0 20 20" id="chevron-right" xmlns="http://www.w3.org/2000/svg"><title>chevron-right</title><path d="M9.163 4.516c.418.408 4.502 4.695 4.502 4.695a1.095 1.095 0 0 1 0 1.576s-4.084 4.289-4.502 4.695c-.418.408-1.17.436-1.615 0-.446-.434-.481-1.041 0-1.574L11.295 10 7.548 6.092c-.481-.533-.446-1.141 0-1.576s1.197-.409 1.615 0z"/></symbol></svg>